# xmcd CD database file
#
# Track frame offsets:
#	150
#	42983
#	71075
#	108090
#	145052
#	167136
#	197645
#	224345
#	257593
#
# Disc length: 3682 seconds
#
# Revision: 0
# Processed by: cddbd v1.5.2PL0 Copyright (c) Steve Scherf et al.
# Submitted via: CDex 1.70beta2
#
DISCID=810e6009
DTITLE=Dino e Franco Piana Jazz orchestra - Omaggio a Armando Trovaioli
DYEAR=2008
DGENRE=Jazz
TTITLE0=01 - Riusciranno i nostri eroi...
TTITLE1=02 - Matrimonio all'italiana
TTITLE2=03 - El negro zumbon (baion de Anna)
TTITLE3=04 - Jazz prelude
TTITLE4=05 - Anatra all'arancia
TTITLE5=06 - Piaceva alle donne - così è lui
TTITLE6=07 - Golden age
TTITLE7=08 - 7 uomini d'oro
TTITLE8=09 - Roma nun fa' la stupida stasera
EXTD=YEAR: 2008
EXTT0=
EXTT1=
EXTT2=
EXTT3=
EXTT4=
EXTT5=
EXTT6=
EXTT7=
EXTT8=
PLAYORDER=
